<?xml version="1.0" standalone="no"?>
<!DOCTYPE svg PUBLIC "-//W3C//DTD SVG 20010904//EN"
 "http://www.w3.org/TR/2001/REC-SVG-20010904/DTD/svg10.dtd">
<svg version="1.0" xmlns="http://www.w3.org/2000/svg"
 width="1066.000000pt" height="1280.000000pt" viewBox="0 0 1066.000000 1280.000000"
 preserveAspectRatio="xMidYMid meet">
<metadata>
Created by potrace 1.15, written by Peter Selinger 2001-2017
</metadata>
<g transform="translate(0.000000,1280.000000) scale(0.100000,-0.100000)"
fill="#000000" stroke="none">
<path d="M4885 12439 c-550 -47 -1038 -232 -1435 -543 -518 -406 -826 -953
-891 -1585 -15 -147 -6 -529 16 -671 95 -611 358 -1114 785 -1498 308 -276
689 -522 1245 -802 329 -166 514 -249 955 -434 879 -367 1474 -666 1950 -981
481 -318 746 -601 940 -1000 141 -291 217 -604 242 -994 49 -788 -204 -1460
-762 -2021 -714 -719 -1620 -1024 -2708 -914 -537 54 -1019 223 -1457 509
-450 293 -867 742 -1074 1153 -23 45 -41 86 -41 91 0 14 123 194 199 291 217
279 495 551 770 754 495 365 608 459 757 625 163 182 259 344 330 561 21 63
39 116 40 118 4 6 86 -49 169 -112 106 -80 255 -230 338 -341 81 -108 187
-317 221 -437 71 -250 74 -546 6 -742 -56 -162 -156 -310 -319 -470 -56 -54
-101 -105 -101 -113 0 -24 59 -132 77 -141 30 -16 477 108 589 163 221 107
445 335 591 603 202 366 215 786 37 1162 -130 274 -329 493 -641 703 -244 165
-592 308 -870 357 -82 15 -77 8 -93 130 -47 360 -206 704 -427 924 -318 316
-713 391 -1110 210 -247 -112 -507 -386 -650 -684 -26 -55 -50 -100 -53 -100
-3 0 -31 52 -62 114 -93 188 -177 306 -312 442 -167 167 -270 234 -463 300
-106 37 -111 37 -268 38 -140 1 -170 -2 -240 -22 -456 -133 -784 -572 -890
-1192 -43 -255 -46 -566 -6 -755 70 -331 202 -567 466 -830 152 -153 265 -244
580 -467 135 -96 160 -118 159 -138 -1 -14 -12 -81 -25 -150 -22 -113 -24
-152 -24 -400 0 -304 12 -405 76 -635 187 -674 705 -1245 1474 -1625 283 -140
510 -221 835 -299 387 -94 803 -141 1250 -141 1172 -1 2151 324 2982 989 153
122 429 388 561 541 506 584 798 1267 893 2085 22 189 25 689 6 875 -133 1257
-744 2036 -2157 2750 -388 196 -488 239 -1640 695 -804 318 -1438 652 -1865
981 -157 121 -409 374 -487 490 -173 255 -229 457 -204 733 31 337 148 606
380 868 232 263 507 413 810 443 167 17 297 -8 538 -102 140 -55 531 -250 748
-374 508 -289 867 -437 1260 -520 164 -35 453 -44 634 -20 693 92 1500 489
2384 1173 100 78 147 121 147 134 0 25 -118 227 -139 238 -9 5 -40 12 -69 16
l-52 7 -118 -94 c-623 -501 -1166 -776 -1614 -817 -293 -28 -639 82 -1365 433
-544 262 -893 388 -1258 452 -110 19 -401 26 -550 13z m-3248 -5775 c207 -42
349 -121 513 -284 129 -127 190 -213 276 -387 52 -104 58 -113 84 -113 27 0
33 8 84 113 94 193 198 326 346 446 197 159 413 231 654 218 132 -7 221 -29
331 -81 270 -128 475 -398 550 -724 8 -35 15 -65 15 -68 0 -2 -66 -1 -147 2
-348 15 -762 -50 -1089 -171 -681 -253 -1324 -836 -1620 -1471 -44 -93 -45
-95 -67 -81 -12 8 -83 52 -157 98 -280 173 -431 284 -565 415 -299 293 -403
629 -336 1089 35 241 98 418 208 583 156 235 349 364 638 425 49 11 213 6 282
-9z m2565 -1363 c63 -11 159 -34 213 -51 l97 -32 -6 -44 c-13 -97 -76 -256
-139 -349 -153 -227 -317 -366 -777 -660 -300 -192 -560 -407 -778 -645 -116
-126 -234 -276 -277 -353 -24 -41 -24 -41 -33 -17 -37 98 -72 343 -79 556 -7
203 5 345 42 508 122 541 560 975 1090 1081 197 39 438 41 647 6z"/>
</g>
</svg>
