<svg xmlns="http://www.w3.org/2000/svg" width="232.043" height="232.009" viewBox="0 0 232.043 232.009">
  <g id="Group_3" data-name="Group 3" transform="translate(0.043 0.009)">
    <path id="Path_1" data-name="Path 1" d="M511,261.79a115.853,115.853,0,0,1-49.69,95.19,114.451,114.451,0,0,1-13.55,8.15c-1.56.8-3.13,1.56-4.729,2.28-1.44.66-2.89,1.28-4.36,1.87a116.421,116.421,0,0,1-57.57,7.68q-5.07-.6-10.01-1.65l-.43-.09a113.315,113.315,0,0,1-20.15-6.27A116.012,116.012,0,1,1,511,261.79Z" transform="translate(-279 -145.79)" fill="#f1f1f1"/>
    <path id="Path_2" data-name="Path 2" d="M416.36,240.14c-.1-.12-.21-.23-.32-.34a33.444,33.444,0,0,0-47.04-.48c-.07.06-.13.12-.19.18-.08.07-.15.14-.22.21a33.427,33.427,0,0,0-9.82,23.68v21a4.507,4.507,0,0,0,4.5,4.5h58a4.507,4.507,0,0,0,4.5-4.5v-21a33.349,33.349,0,0,0-9.41-23.25Z" transform="translate(-279 -145.79)" fill="#2f2e41"/>
    <circle id="Ellipse_1" data-name="Ellipse 1" cx="24.561" cy="24.561" r="24.561" transform="translate(90.053 93.77)" fill="#ffb7b7"/>
    <path id="Path_3" data-name="Path 3" d="M419.43,262.03l-2.9-20.26a2.537,2.537,0,0,0-.89-1.59,2.626,2.626,0,0,0-.53-.33c-14.85-6.95-29.91-6.95-44.76-.02a2.449,2.449,0,0,0-.55.35c-.06.05-.12.11-.18.17a2.531,2.531,0,0,0-.7,1.51l-1.94,20.29a2.505,2.505,0,0,0,.64,1.92,2.477,2.477,0,0,0,1.44.78,1.837,1.837,0,0,0,.41.04h4.92a2.523,2.523,0,0,0,2.27-1.44l2.13-4.56a1.494,1.494,0,0,1,2.84.45l.42,3.36a2.512,2.512,0,0,0,2.48,2.19h32.43a2.4,2.4,0,0,0,1.21-.32,2.533,2.533,0,0,0,.68-.54,2.506,2.506,0,0,0,.58-2Z" transform="translate(-279 -145.79)" fill="#2f2e41"/>
    <path id="Path_4" data-name="Path 4" d="M454.35,333.68l6.96,23.3a114.446,114.446,0,0,1-13.55,8.15c-1.56.8-3.13,1.56-4.73,2.28l-7.21-30.91-2.8-11.99,18-2Z" transform="translate(-279 -145.79)" fill="#ffb7b7"/>
    <path id="Path_5" data-name="Path 5" d="M371.52,329.81l-.6,31.48-.26,13.93a113.315,113.315,0,0,1-20.15-6.27l2.39-29.82.6-7.52Z" transform="translate(-279 -145.79)" fill="#ffb7b7"/>
    <path id="Path_6" data-name="Path 6" d="M454.35,333.68l-18.08,2.71.22,2.97,2.18,29.92a116.421,116.421,0,0,1-57.57,7.68q-5.07-.6-10.01-1.65c1.48-6.22,2.76-11.82,1.18-12.92a11.982,11.982,0,0,1-1.35-1.1c-7.37-7.03-4.65-22.9-4.65-22.9l-13.37.74-4.63.26s2-32,11-32h11l53-5s15-5,19,2c2.1,3.67,5.84,11.45,8.93,18.03,2.8,5.98,5.07,10.97,5.07,10.97Z" transform="translate(-279 -145.79)" fill="#2f2e41"/>
  </g>
</svg>
