<svg xmlns="http://www.w3.org/2000/svg" width="232.008" height="232" viewBox="0 0 232.008 232">
  <g id="Group_2" data-name="Group 2" transform="translate(-409.992 0)">
    <path id="Path_7" data-name="Path 7" d="M920.993,263.067A115.847,115.847,0,0,1,872.11,356.42c-.26.18-.53.37-.8.56s-.57.4-.86.59q-2.52,1.74-5.14,3.33-3.69,2.25-7.55,4.23c-.08.04-.17.08-.25.12q-2.219,1.14-4.479,2.16c-.05.02-.09.04-.14.06-.35.16-.72.33-1.08.48-2.79,1.24-5.64,2.37-8.54,3.37q-3.705,1.3-7.52,2.34a113.728,113.728,0,0,1-15.85,3.18,115.6,115.6,0,0,1-13.76.94c-.38.01-.76.01-1.14.01-2.51,0-5.01-.08-7.48-.24-2.16-.14-4.3-.33-6.42-.59-3.27-.39-6.5-.91-9.68-1.59-.14-.02-.28-.05-.42-.08-.11-.02-.23-.05-.34-.07-3.2-.67-6.35-1.49-9.44-2.43q-4.365-1.32-8.57-2.98c-.72-.28-1.43-.56-2.14-.86-1.77-.74-3.52-1.51-5.24-2.34-.5-.23-.99-.47-1.48-.71-1.66-.81-3.3-1.66-4.9-2.56q-2.9-1.605-5.69-3.37c-2.35-1.48-4.65-3.04-6.88-4.69A116,116,0,0,1,806.65,145.8C870.258,146.685,921.679,199.457,920.993,263.067Z" transform="translate(-279 -145.79)" fill="#f1f1f1"/>
    <path id="Path_8" data-name="Path 8" d="M780.66,375.22c-3.2-.67-6.35-1.49-9.44-2.43L781.83,307l10.99-.34,19.93-.63,10.22-.32s7.25,31.86,12.78,67.95a113.728,113.728,0,0,1-15.85,3.18,115.593,115.593,0,0,1-13.76.94c-.38.01-.76.01-1.14.01-2.51,0-5.01-.08-7.48-.24-2.16-.14-4.3-.33-6.42-.59-3.27-.39-6.5-.91-9.68-1.59-.14-.02-.28-.05-.42-.08C780.89,375.27,780.77,375.24,780.66,375.22Z" transform="translate(-279 -145.79)" fill="#cbcbcb"/>
    <path id="Path_9" data-name="Path 9" d="M781.42,375.37c-.14-.02-.28-.05-.42-.08-.11-.02-.23-.05-.34-.07-3.2-.67-6.35-1.49-9.44-2.43q-4.365-1.32-8.57-2.98c-.72-.28-1.43-.56-2.14-.86-1.77-.74-3.52-1.51-5.24-2.34-.5-.23-.99-.47-1.48-.71l-.88-49.26,27-11.57s.09.72,12.91,1.59C795.26,314.62,781.42,375.37,781.42,375.37Z" transform="translate(-279 -145.79)" fill="#2f2e41"/>
    <path id="Path_10" data-name="Path 10" d="M862.12,314.31l-5.09,26.75.479,24.19q-2.219,1.14-4.479,2.16c-.05.02-.09.04-.14.06-.35.16-.72.33-1.08.48-2.79,1.24-5.64,2.37-8.54,3.37q-3.705,1.3-7.52,2.34a113.728,113.728,0,0,1-15.85,3.18,115.6,115.6,0,0,1-13.76.94l-.53-42.87c-1.12-13.82,2.59-22.96,7.14-28.88,24.25-3.24,23.71-3.53,23.71-3.53l25.71,11.57Z" transform="translate(-279 -145.79)" fill="#2f2e41"/>
    <path id="Path_11" data-name="Path 11" d="M764.48,320.5l-1.83,49.31c-.72-.28-1.43-.56-2.14-.86-1.77-.74-3.52-1.51-5.24-2.34-.5-.23-.99-.47-1.48-.71-1.66-.81-3.3-1.66-4.9-2.56q-2.9-1.605-5.69-3.37l9.71-43.33Z" transform="translate(-279 -145.79)" fill="#2f2e41"/>
    <path id="Path_12" data-name="Path 12" d="M872.11,356.42c-.26.18-.53.37-.8.56s-.57.4-.86.59q-2.52,1.74-5.14,3.33-3.69,2.25-7.55,4.23c-.08.04-.17.08-.25.12q-2.287,1.174-4.617,2.222l0,0-1.83-49.48,11.06-3.68.51-.17Z" transform="translate(-279 -145.79)" fill="#2f2e41"/>
    <ellipse id="Ellipse_2" data-name="Ellipse 2" cx="28.603" cy="28.529" rx="28.603" ry="28.529" transform="translate(490.801 134.124) rotate(-73.66)" fill="#9f616a"/>
    <path id="Path_13" data-name="Path 13" d="M776.492,267.665V256.533s-8.977-10.572.9-13.236c0,0,2.693-26.632,26.032-14.2,0,0,32.316-5.326,28.725,13.316,0,0,8.079-4.867,5.386,7.561l-5.208,20.02s2.515-13.224-5.564-15l-4.488-2.663s-12.567,12.428-31.418-2.663c0,0-8.079-1.928-7.181,6.061S776.492,267.665,776.492,267.665Z" transform="translate(-279 -145.79)" fill="#2f2e41"/>
  </g>
</svg>
