<svg xmlns="http://www.w3.org/2000/svg" width="232.033" height="232.011" viewBox="0 0 232.033 232.011">
  <g id="Group_4" data-name="Group 4" transform="translate(-204.967 -349.989)">
    <path id="Path_14" data-name="Path 14" d="M716,611.79a115.853,115.853,0,0,1-49.69,95.19c-.28.2-.57.4-.86.59q-2.52,1.74-5.14,3.33-3.69,2.25-7.55,4.23c-1.56.8-3.13,1.56-4.729,2.28-.4.18-.81.37-1.22.54-2.79,1.24-5.64,2.37-8.54,3.37a114.2,114.2,0,0,1-23.37,5.52,116.3,116.3,0,0,1-14.9.95c-2.51,0-5.01-.08-7.48-.24-2.16-.14-4.3-.33-6.42-.59-3.41-.41-6.78-.96-10.1-1.67-.11-.02-.23-.05-.34-.07a113.313,113.313,0,0,1-20.15-6.27c-1.77-.74-3.52-1.51-5.24-2.34q-3.255-1.53-6.38-3.27A116.009,116.009,0,1,1,716,611.79Z" transform="translate(-279 -145.79)" fill="#f1f1f1"/>
    <circle id="Ellipse_3" data-name="Ellipse 3" cx="25.903" cy="25.903" r="25.903" transform="translate(291.91 442.783)" fill="#ffb8b8"/>
    <path id="Path_15" data-name="Path 15" d="M586.1,726.96c-3.41-.41-6.78-.96-10.1-1.67l3.15-70.88.45-.47,6.45-6.81h20.51l7.57,7.33.64.63,16.19,15.51,7.31,50.72a114.206,114.206,0,0,1-23.37,5.52,116.269,116.269,0,0,1-14.9.95c-2.51,0-5.01-.08-7.48-.24C590.36,727.41,588.22,727.22,586.1,726.96Z" transform="translate(-279 -145.79)" fill="#cbcbcb"/>
    <path id="Path_16" data-name="Path 16" d="M550.27,716.61q-3.255-1.53-6.38-3.27c-.21-19.2-.35-31.95-.35-31.95l2.44-1.49a.8.8,0,0,1,.09-.04l27.69-16.82,5.81-9.44.03.34,1.71,19.9a346.745,346.745,0,0,1,11.21,53.71c-2.16-.14-4.3-.33-6.42-.59-3.41-.41-6.78-.96-10.1-1.67-.11-.02-.23-.05-.34-.07a113.318,113.318,0,0,1-20.15-6.27C553.74,718.21,551.99,717.44,550.27,716.61Z" transform="translate(-279 -145.79)" fill="#2f2e41"/>
    <path id="Path_17" data-name="Path 17" d="M638.27,721.32a114.2,114.2,0,0,1-23.37,5.52,91.266,91.266,0,0,1-1.21-19.55c2.16-34.53-2.82-53.69-.66-53.69l1.1.86,13.59,10.74,17.89,6.56h.01l12.31,4.51,2.17.8v1.03c.01,3.56.03,16.02.21,32.8q-3.69,2.25-7.55,4.23c-1.56.8-3.13,1.56-4.729,2.28-.4.18-.81.37-1.22.54C644.02,719.19,641.17,720.32,638.27,721.32Z" transform="translate(-279 -145.79)" fill="#2f2e41"/>
    <path id="Path_18" data-name="Path 18" d="M572.308,622.58s2.2-3.865,1.689-16.776,19.15-5.609,35.578-6.841,12.951,21.556,12.951,21.556,1.185-1.355,3.723-12.353-3.224-21.958-3.224-21.958c-1.7-11.557-10.842-7.853-10.842-7.853,4.4,1.715,3.558,5.381,3.558,5.381-3.728-6.536-12.873-2.832-12.873-2.832-12.2-7.654-24.559,2.425-24.559,2.425-14.735,3.344-6.093,15.062-6.093,15.062C557.4,605.879,572.308,622.58,572.308,622.58Z" transform="translate(-279 -145.79)" fill="#2f2e41"/>
    <path id="Path_19" data-name="Path 19" d="M531.32,705.28c.38-8.79.55-14.46.35-15.25-1.03-4.12,13.03-9.64,14.31-10.13a.8.8,0,0,1,.09-.04l2.86,1.53,1.34,35.22q-3.255-1.53-6.38-3.27a115.164,115.164,0,0,1-12.57-8.06Z" transform="translate(-279 -145.79)" fill="#2f2e41"/>
    <path id="Path_20" data-name="Path 20" d="M660.31,710.9q-3.69,2.25-7.55,4.23c-1.56.8-3.13,1.56-4.729,2.28-.4.18-.81.37-1.22.54l-4.5-44.43,2.63-1.92s.24.06.67.16h.01c2.11.52,8.59,2.24,12.31,4.51a7.714,7.714,0,0,1,2.17,1.83,2.223,2.223,0,0,1,.51,1.58c-.12,1.16,1.88,12.16,4.84,27.89Q662.93,709.31,660.31,710.9Z" transform="translate(-279 -145.79)" fill="#2f2e41"/>
  </g>
</svg>
